<svg xmlns="http://www.w3.org/2000/svg" xmlns:xlink="http://www.w3.org/1999/xlink" version="1.1" width="256" height="256" viewBox="0 0 256 256" xml:space="preserve">

<defs>
</defs>
<g style="stroke: none; stroke-width: 0; stroke-dasharray: none; stroke-linecap: butt; stroke-linejoin: miter; stroke-miterlimit: 10; fill: none; fill-rule: nonzero; opacity: 1;" transform="translate(22.611673151750978 22.61167315175095) scale(2.33 2.33)" >
	<path d="M 81.827 73.87 H 8.173 C 4.212 73.87 1 70.659 1 66.697 V 23.303 c 0 -3.962 3.212 -7.173 7.173 -7.173 h 73.653 c 3.962 0 7.173 3.212 7.173 7.173 v 43.393 C 89 70.659 85.788 73.87 81.827 73.87 z" style="stroke: none; stroke-width: 1; stroke-dasharray: none; stroke-linecap: butt; stroke-linejoin: miter; stroke-miterlimit: 10; fill: rgb(86,216,102); fill-rule: nonzero; opacity: 1;" transform=" matrix(1 0 0 1 0 0) " stroke-linecap="round" />
	<rect x="1" y="29.73" rx="0" ry="0" width="88" height="12.53" style="stroke: none; stroke-width: 1; stroke-dasharray: none; stroke-linecap: butt; stroke-linejoin: miter; stroke-miterlimit: 10; fill: rgb(235,235,241); fill-rule: nonzero; opacity: 1;" transform=" matrix(1 0 0 1 0 0) "/>
	<path d="M 81.826 74.87 H 8.173 C 3.667 74.87 0 71.203 0 66.696 V 23.303 c 0 -4.507 3.667 -8.173 8.173 -8.173 h 73.653 c 4.507 0 8.174 3.667 8.174 8.173 v 43.393 C 90 71.203 86.333 74.87 81.826 74.87 z M 8.173 17.13 C 4.77 17.13 2 19.899 2 23.303 v 43.393 c 0 3.404 2.77 6.174 6.173 6.174 h 73.653 c 3.404 0 6.174 -2.77 6.174 -6.174 V 23.303 c 0 -3.404 -2.77 -6.173 -6.174 -6.173 H 8.173 z" style="stroke: none; stroke-width: 1; stroke-dasharray: none; stroke-linecap: butt; stroke-linejoin: miter; stroke-miterlimit: 10; fill: rgb(0,0,0); fill-rule: nonzero; opacity: 1;" transform=" matrix(1 0 0 1 0 0) " stroke-linecap="round" />
	<path d="M 89 43.265 H 1 c -0.552 0 -1 -0.448 -1 -1 v -12.53 c 0 -0.552 0.448 -1 1 -1 h 88 c 0.553 0 1 0.448 1 1 v 12.53 C 90 42.817 89.553 43.265 89 43.265 z M 2 41.265 h 86 v -10.53 H 2 V 41.265 z" style="stroke: none; stroke-width: 1; stroke-dasharray: none; stroke-linecap: butt; stroke-linejoin: miter; stroke-miterlimit: 10; fill: rgb(0,0,0); fill-rule: nonzero; opacity: 1;" transform=" matrix(1 0 0 1 0 0) " stroke-linecap="round" />
	<path d="M 49.26 58.265 H 10.74 c -0.552 0 -1 -0.447 -1 -1 s 0.448 -1 1 -1 h 38.52 c 0.553 0 1 0.447 1 1 S 49.813 58.265 49.26 58.265 z" style="stroke: none; stroke-width: 1; stroke-dasharray: none; stroke-linecap: butt; stroke-linejoin: miter; stroke-miterlimit: 10; fill: rgb(0,0,0); fill-rule: nonzero; opacity: 1;" transform=" matrix(1 0 0 1 0 0) " stroke-linecap="round" />
	<path d="M 79.26 58.265 h -8.52 c -0.553 0 -1 -0.447 -1 -1 s 0.447 -1 1 -1 h 8.52 c 0.553 0 1 0.447 1 1 S 79.813 58.265 79.26 58.265 z" style="stroke: none; stroke-width: 1; stroke-dasharray: none; stroke-linecap: butt; stroke-linejoin: miter; stroke-miterlimit: 10; fill: rgb(0,0,0); fill-rule: nonzero; opacity: 1;" transform=" matrix(1 0 0 1 0 0) " stroke-linecap="round" />
</g>
</svg>